<svg xmlns="http://www.w3.org/2000/svg" viewBox="0 0 32 32">
  <!-- ~10% padding on each side, artwork fills ~80% of canvas (macOS HIG) -->
  <rect x="3.2" y="3.2" width="25.6" height="25.6" rx="5" fill="#0066cc"/>
  <path d="M9.6 16c0-3.5 2.9-6.4 6.4-6.4s6.4 2.9 6.4 6.4-2.9 6.4-6.4 6.4-6.4-2.9-6.4-6.4z" fill="#4da6ff"/>
  <path d="M16 9.6c-3.5 0-6.4 2.9-6.4 6.4 0 1.2.3 2.3.9 3.3l2-2c-.3-.4-.5-.9-.5-1.3 0-1.4 1.1-2.4 2.4-2.4s2.4 1.1 2.4 2.4c0 .5-.2.9-.4 1.3l2 2c.6-1 .9-2.1.9-3.3 0-3.5-2.9-6.4-6.4-6.4z" fill="#ffffff"/>
</svg>
